<?xml version="1.0" encoding="UTF-8"?>
<svg version="1.1" xmlns="http://www.w3.org/2000/svg" width="1600" height="1600">
<path d="M0 0 C0.9988623 0.43505859 1.99772461 0.87011719 3.02685547 1.31835938 C36.3139757 15.92041242 67.484695 34.43985002 96 57 C97.00595215 57.79398193 97.00595215 57.79398193 98.03222656 58.60400391 C105.70772888 64.68981014 113.20353897 70.90987345 120.375 77.5859375 C122.44790576 79.49227047 124.54808634 81.33390065 126.68359375 83.16796875 C131.69514493 87.53882197 136.37276258 92.22655804 141.0625 96.9375 C141.92166016 97.79279297 142.78082031 98.64808594 143.66601562 99.52929688 C148.65365907 104.52456086 153.41443389 109.63535741 158 115 C158.92540014 116.04836318 159.85240148 117.09531586 160.78125 118.140625 C172.87132591 131.90209933 183.92488136 146.70312557 194 162 C194.433125 162.65661621 194.86625 163.31323242 195.3125 163.98974609 C239.40651544 231.30967175 267.85976044 312.16470825 268.203125 393.2109375 C268.21013931 394.32969772 268.21715363 395.44845795 268.22438049 396.60112 C268.24178072 400.19245484 268.24823317 403.78362455 268.25 407.375 C268.25101212 409.21963333 268.25101212 409.21963333 268.25204468 411.10153198 C268.23564623 429.92281776 267.71925046 448.34920282 265 467 C264.82307617 468.23814453 264.64615234 469.47628906 264.46386719 470.75195312 C252.65584415 551.30755071 219.65837657 630.92808787 165.85644531 692.7043457 C164.00264934 694.83368953 162.17175241 696.97906657 160.36206055 699.14599609 C153.38243878 707.47097013 146.01543934 715.29776302 138.30883789 722.9519043 C136.42811472 724.82183141 134.55843181 726.70232638 132.68945312 728.58398438 C126.53685428 734.74346227 120.33201292 740.5819704 113.50317383 745.99145508 C111.05265659 747.95774839 108.71875539 750.00819304 106.390625 752.1171875 C102.02163273 756.0384259 97.45607663 759.61874464 92.75 763.125 C91.46125977 764.08660034 91.46125977 764.08660034 90.14648438 765.06762695 C18.365209 818.12929308 -71.23805818 852.82194134 -161.2109375 853.203125 C-162.32969772 853.21013931 -163.44845795 853.21715363 -164.60112 853.22438049 C-168.19245484 853.24178072 -171.78362455 853.24823317 -175.375 853.25 C-176.60475555 853.25067474 -177.83451111 853.25134949 -179.10153198 853.25204468 C-197.92356804 853.23564557 -216.34822716 852.71594608 -235 850 C-236.24346191 849.82307617 -237.48692383 849.64615234 -238.76806641 849.46386719 C-256.07763268 846.93905578 -273.09938898 843.50793585 -290 839 C-290.97565918 838.73993164 -291.95131836 838.47986328 -292.95654297 838.21191406 C-356.89224098 820.8953335 -415.98022097 789.41604416 -466 746 C-466.7115625 745.38898437 -467.423125 744.77796875 -468.15625 744.1484375 C-470.12050795 742.44983739 -472.06338178 740.73004561 -474 739 C-474.83144531 738.26136719 -475.66289062 737.52273438 -476.51953125 736.76171875 C-482.96145701 730.95429184 -489.16930403 724.93498857 -495.3125 718.8125 C-496.06515137 718.06444092 -496.81780273 717.31638184 -497.59326172 716.5456543 C-502.26684247 711.85915168 -506.70123675 707.03115008 -511 702 C-511.87745813 700.99075843 -512.75505095 699.98163394 -513.6328125 698.97265625 C-569.96858217 633.18872458 -606.03622708 552.99751636 -619 457 C-619.11859375 456.04464355 -619.2371875 455.08928711 -619.359375 454.10498047 C-631.40889438 352.56267653 -603.27374774 243.53092094 -544 158 C-543.59716797 157.41847168 -543.19433594 156.83694336 -542.77929688 156.23779297 C-530.70340868 138.86554652 -517.26352239 122.61505751 -503 107 C-502.12472656 106.03191406 -501.24945313 105.06382812 -500.34765625 104.06640625 C-492.63628621 95.55899748 -484.77897929 87.23069147 -476.0390625 79.76171875 C-473.7730777 77.80394261 -471.57856506 75.77771052 -469.375 73.75 C-463.78477049 68.71283734 -457.91059495 64.09487658 -451.95214844 59.50634766 C-449.91253071 57.93250556 -447.8819441 56.34745338 -445.8515625 54.76171875 C-425.84091184 39.20500728 -404.3562002 25.92177657 -382 14 C-381.20239258 13.57251465 -380.40478516 13.1450293 -379.58300781 12.70458984 C-346.22013369 -5.01410305 -309.86675922 -17.89371789 -273 -26 C-272.00323242 -26.21994629 -271.00646484 -26.43989258 -269.97949219 -26.66650391 C-256.6537981 -29.5449383 -243.27613742 -31.61446603 -229.75 -33.25 C-228.72158493 -33.37462616 -228.72158493 -33.37462616 -227.6723938 -33.50177002 C-150.63749624 -42.71977941 -71.05167459 -31.20252143 0 0 Z M-176 28 C-176 153.4 -176 278.8 -176 408 C-50.6 408 74.8 408 204 408 C204.14702778 388.76359894 204.14702778 388.76359894 202.8125 369.75 C202.61394409 367.95139526 202.61394409 367.95139526 202.41137695 366.11645508 C197.62527506 324.97640236 186.78624385 284.46041302 169 247 C168.54544434 246.03336426 168.09088867 245.06672852 167.62255859 244.07080078 C157.39610911 222.48474806 145.22408529 202.18632842 131 183 C130.57267578 182.4210498 130.14535156 181.84209961 129.70507812 181.24560547 C113.07563368 158.83736422 93.65364664 136.2455036 71.61328125 119.0546875 C69.16930723 117.1331175 66.82254254 115.12571875 64.48071289 113.08178711 C56.42610309 106.08773563 47.8303879 99.97162923 39 94 C38.31421875 93.5359375 37.6284375 93.071875 36.921875 92.59375 C9.84672403 74.40586233 -19.1355672 59.59389904 -50 49 C-51.00740234 48.65098633 -52.01480469 48.30197266 -53.05273438 47.94238281 C-81.7404777 38.09854932 -111.15933466 32.20156173 -141.3125 29.25 C-142.58625488 29.12214111 -143.86000977 28.99428223 -145.17236328 28.86254883 C-155.56802666 27.91742806 -165.44053818 28 -176 28 Z M-557 409 C-557 420.79089017 -556.91925139 432.03919223 -555.75 443.6875 C-555.6501329 444.70774261 -555.6501329 444.70774261 -555.54824829 445.74859619 C-552.53637532 476.32693712 -546.03533483 505.95919864 -536 535 C-535.67193359 535.96550781 -535.34386719 536.93101562 -535.00585938 537.92578125 C-526.07830592 563.9512724 -513.68727069 588.75912267 -499 612 C-498.61263672 612.61311035 -498.22527344 613.2262207 -497.82617188 613.85791016 C-495.63122904 617.29685605 -493.34060681 620.65897253 -491 624 C-490.2575 625.07765625 -489.515 626.1553125 -488.75 627.265625 C-482.76143429 635.87258902 -476.2892023 644.03719532 -469.58203125 652.09326172 C-468.14584104 653.82422554 -466.72755881 655.56817501 -465.3125 657.31640625 C-458.80247412 665.24493125 -451.66556451 672.54456471 -444.4375 679.8125 C-443.95444397 680.30082306 -443.47138794 680.78914612 -442.97369385 681.29226685 C-436.32848505 687.99346112 -429.37106449 694.10715967 -422 700 C-420.89836949 700.93501246 -419.80203715 701.87636422 -418.71484375 702.828125 C-361.7322375 752.5175988 -287.35349649 779.76450331 -213 788 C-212.11054687 788.10747559 -211.22109375 788.21495117 -210.3046875 788.32568359 C-199.17203827 789.48803928 -188.30293927 789 -177 789 C-177 663.6 -177 538.2 -177 409 C-302.4 409 -427.8 409 -557 409 Z " fill="#000000" transform="translate(970,385)"/>
<path d="M0 0 C1.02158203 0.57331055 2.04316406 1.14662109 3.09570312 1.73730469 C17.98630831 10.10933377 32.46260068 18.95536616 46.66796875 28.44335938 C48.60617575 29.73712067 50.54993485 31.02110948 52.5 32.296875 C74.24688906 46.59781835 94.99135117 62.36584717 115 79 C115.58749023 79.48839355 116.17498047 79.97678711 116.78027344 80.47998047 C123.12880741 85.77398205 129.37984751 91.16330796 135.48828125 96.734375 C137.59179554 98.63179069 139.71511357 100.49940164 141.8515625 102.359375 C153.0082886 112.10739078 163.57743537 122.47778843 174.0625 132.9375 C174.55509308 133.42750488 175.04768616 133.91750977 175.5552063 134.42236328 C180.69575628 139.54156894 185.73691986 144.70314961 190.4597168 150.21459961 C192.85235378 152.98799544 195.36958551 155.64140692 197.875 158.3125 C202.35867269 163.13236077 206.6162423 168.07503978 210.73828125 173.2109375 C212.74640819 175.68728056 214.80137255 178.11479523 216.88085938 180.53125 C223.40498252 188.12566439 229.4648267 196.03949796 235.49804688 204.02636719 C236.81130546 205.75204703 238.14022261 207.46242277 239.484375 209.1640625 C263.57394937 239.80147419 284.348877 273.66557287 302.48681641 308.12939453 C303.98253055 310.96685934 305.49566919 313.79445211 307.01171875 316.62109375 C319.51380377 340.07371671 330.35751635 364.24099036 340 389 C340.41314453 390.05912598 340.82628906 391.11825195 341.25195312 392.20947266 C370.88212133 468.78537884 387.82993544 549.94346691 329 971 C317.30089049 997.33289869 304.55340765 1023.12550716 290 1048 C289.50145508 1048.85255371 289.00291016 1049.70510742 288.48925781 1050.58349609 C277.13403121 1069.91432846 265.204643 1088.87541699 252 1107 C251.43249023 1107.78004395 250.86498047 1108.56008789 250.28027344 1109.36376953 C232.27961819 1134.05445531 213.32558135 1157.9493732 192.51391602 1180.3425293 C191.41761865 1181.54278133 190.33664688 1182.75709085 189.26538086 1183.97973633 C182.25011817 1191.94284795 174.74616246 1199.40512679 167.23413086 1206.89624023 C164.9355279 1209.18946748 162.6423397 1211.4880124 160.34960938 1213.78710938 C158.86750813 1215.26855 157.3850968 1216.7496805 155.90234375 1218.23046875 C155.22815903 1218.9066777 154.5539743 1219.58288666 153.85935974 1220.27958679 C149.94646419 1224.17353751 145.92920796 1227.89028028 141.74569702 1231.49241638 C139.34361575 1233.56685332 137.01866303 1235.72148392 134.6875 1237.875 C130.19851943 1241.96880209 125.58756524 1245.85469667 120.859375 1249.66796875 C118.36215983 1251.70463194 115.90809441 1253.78285553 113.46557617 1255.88452148 C100.35729372 1267.13772543 86.39947926 1277.32057136 72.33447266 1287.33642578 C70.7695293 1288.45162386 69.20672148 1289.56982442 67.64599609 1290.69091797 C-5.7525661 1343.37614436 -90.32613058 1382.11660602 -325 1428 C-326.02335449 1428.07347656 -327.04670898 1428.14695312 -328.10107422 1428.22265625 C-410.16684651 1433.78744081 -494.80459714 1423.80709277 -658 1373 C-659.16708496 1372.5138623 -660.33416992 1372.02772461 -661.53662109 1371.52685547 C-700.32732127 1355.31450444 -737.2468076 1336.09666392 -773 1314 C-774.58821259 1313.02680651 -776.17670998 1312.05407747 -777.765625 1311.08203125 C-787.06256154 1305.36753188 -796.07516238 1299.27775526 -805 1293 C-805.61649414 1292.56655273 -806.23298828 1292.13310547 -806.86816406 1291.68652344 C-815.02324236 1285.93743297 -823.05500768 1280.03694298 -831 1274 C-832.00289062 1273.24332031 -833.00578125 1272.48664063 -834.0390625 1271.70703125 C-852.49238255 1257.67243424 -870.1460898 1242.60368324 -887.08081055 1226.77563477 C-888.58990974 1225.37941566 -890.10914233 1223.99414854 -891.63208008 1222.61303711 C-898.52209041 1216.36313457 -905.21066383 1209.94693072 -911.7746582 1203.35571289 C-913.32584727 1201.79910611 -914.88239392 1200.24799829 -916.43945312 1198.69726562 C-921.27519839 1193.86473383 -926.00841505 1188.98858643 -930.45483398 1183.7902832 C-933.00338252 1180.83744604 -935.69905269 1178.02439731 -938.375 1175.1875 C-943.04683901 1170.19454716 -947.49800315 1165.09431243 -951.7734375 1159.75390625 C-953.76688471 1157.28832681 -955.80983858 1154.87449322 -957.87817383 1152.47167969 C-964.36603194 1144.92040864 -970.41556394 1137.06682348 -976.40332031 1129.11572266 C-977.90419486 1127.12694913 -979.41522729 1125.14640543 -980.9296875 1123.16796875 C-994.20784294 1105.74897426 -1006.56869668 1087.68051792 -1018 1069 C-1018.47856445 1068.22156738 -1018.95712891 1067.44313477 -1019.45019531 1066.64111328 C-1053.22347689 1011.56520479 -1079.63033521 953.58325789 -1099 892 C-1099.34466309 890.90655273 -1099.68932617 889.81310547 -1100.04443359 888.68652344 C-1125.23125233 807.77863102 -1135.58180656 721.90807624 -1098 438 C-1097.7875061 437.32104675 -1097.57501221 436.64209351 -1097.3560791 435.94256592 C-1080.60920348 382.48236253 -1057.69379675 330.14650307 -1029 282 C-1028.40574219 280.99952637 -1027.81148437 279.99905273 -1027.19921875 278.96826172 C-1009.99080173 250.14950744 -991.05482965 222.15533523 -970 196 C-969.48969238 195.36352539 -968.97938477 194.72705078 -968.45361328 194.07128906 C-958.63628666 181.83918068 -948.56652494 169.8494761 -938.01953125 158.23828125 C-936.10847573 156.12022552 -934.23794417 153.97285433 -932.375 151.8125 C-929.65757164 148.68808352 -926.79520281 145.76987389 -923.83959961 142.87207031 C-922.07714345 141.07850511 -920.44031951 139.22884311 -918.80859375 137.31640625 C-914.90953362 132.83367301 -910.77355355 128.62581159 -906.5625 124.4375 C-905.85029297 123.72142578 -905.13808594 123.00535156 -904.40429688 122.26757812 C-900.33196752 118.20264628 -896.16828874 114.31139301 -891.79077148 110.57641602 C-889.94704314 108.95338208 -888.21944449 107.25346228 -886.5 105.5 C-882.83717092 101.78800543 -878.95893845 98.39153359 -875 95 C-874.00226563 94.13632813 -873.00453125 93.27265625 -871.9765625 92.3828125 C-857.36831325 79.75998435 -842.47226934 67.55119016 -827 56 C-826.35144043 55.51305664 -825.70288086 55.02611328 -825.03466797 54.52441406 C-801.42646166 36.87308632 -776.51884007 20.73134962 -751 6 C-750.03884277 5.43974121 -749.07768555 4.87948242 -748.08740234 4.30224609 C-679.6303754 -35.4850375 -604.15178959 -63.91235949 0 0 Z M-445 -28 C-446.52617 -27.82099531 -448.05237555 -27.64229347 -449.57861328 -27.46386719 C-523.09339781 -18.75898903 -594.45282848 0.71566323 -775 97 C-775.81871582 97.59200195 -776.63743164 98.18400391 -777.48095703 98.79394531 C-791.36075656 108.8631238 -804.89944281 119.25088976 -817.9296875 130.3984375 C-820.67734045 132.74257701 -823.48800228 134.99883316 -826.3125 137.25 C-833.21908467 142.86976831 -839.60019641 149.04769703 -846.05712891 155.17041016 C-848.34666172 157.32644922 -850.6653803 159.44837863 -852.99023438 161.56616211 C-862.77259226 170.48724718 -872.53195481 179.66144641 -881.07421875 189.79296875 C-883.3229372 192.37010044 -885.66290856 194.84924399 -888.01025391 197.33642578 C-893.50485245 203.15906006 -898.81958501 209.03089736 -903.81640625 215.29296875 C-905.75565733 217.69708503 -907.75089337 220.03990197 -909.77416992 222.37329102 C-917.68376202 231.53229274 -924.8325955 241.25672079 -932 251 C-932.56509277 251.76505859 -933.13018555 252.53011719 -933.71240234 253.31835938 C-946.71405569 270.95269694 -958.81584863 289.16089981 -970 308 C-970.42812988 308.71736328 -970.85625977 309.43472656 -971.29736328 310.17382812 C-1012.01523874 378.61288578 -1040.9320285 453.75846718 -1068.203125 646.1953125 C-1068.21014761 647.70577524 -1068.21723443 649.21623767 -1068.22438049 650.72669983 C-1068.24377588 655.52613759 -1068.24881457 660.325527 -1068.25 665.125 C-1068.25044186 665.94287113 -1068.25088371 666.76074226 -1068.25133896 667.60339737 C-1068.25809696 691.45493485 -1068.09654949 715.15799686 -1065.25323486 738.8717041 C-1064.98601067 741.1175724 -1064.73211507 743.36469475 -1064.47998047 745.61230469 C-1054.52283471 833.47460958 -1027.93784637 917.72911368 -966 1032 C-965.44151367 1032.91023926 -964.88302734 1033.82047852 -964.30761719 1034.75830078 C-957.5379634 1045.73673321 -950.44496726 1056.46852598 -943 1067 C-942.24831543 1068.06468506 -942.24831543 1068.06468506 -941.48144531 1069.15087891 C-930.76872559 1084.27216646 -919.58297428 1099.01079236 -907.5 1113.06640625 C-905.17375425 1115.79611025 -902.92573847 1118.57308751 -900.6875 1121.375 C-895.9372102 1127.21691833 -890.79742915 1132.66366983 -885.625 1138.12890625 C-882.96756001 1140.94099842 -880.38469938 1143.80948966 -877.81640625 1146.703125 C-872.8916904 1152.19294652 -867.73050039 1157.42110278 -862.5065918 1162.6237793 C-860.93225845 1164.1927236 -859.36338411 1165.76698558 -857.79492188 1167.34179688 C-852.91827161 1172.2216625 -848.00112428 1177.00421591 -842.75463867 1181.49047852 C-839.98890351 1183.86984967 -837.34817361 1186.37967424 -834.6875 1188.875 C-829.94500684 1193.28226211 -825.09950345 1197.49064391 -820.046875 1201.54296875 C-817.74471342 1203.39945546 -815.46817659 1205.27495624 -813.203125 1207.17578125 C-802.78078774 1215.90134425 -792.0326489 1224.06353491 -781 1232 C-779.9490918 1232.76111084 -779.9490918 1232.76111084 -778.87695312 1233.53759766 C-760.24506736 1247.01418805 -740.8911853 1259.46781355 -721 1271 C-720.07058594 1271.53947266 -719.14117188 1272.07894531 -718.18359375 1272.63476562 C-644.47429185 1315.18201246 -563.57720484 1343.2058024 -412 1364 C-411.05560059 1364.05784668 -410.11120117 1364.11569336 -409.13818359 1364.17529297 C-340.19363496 1368.20692804 -269.98947461 1361.77875596 -203 1345 C-201.75508789 1344.68949707 -200.51017578 1344.37899414 -199.22753906 1344.05908203 C-155.71864735 1333.08993891 -113.70909171 1317.80796994 -73 1299 C-72.15904785 1298.61376465 -71.3180957 1298.2275293 -70.45166016 1297.82958984 C-57.65165818 1291.93062647 -45.19693205 1285.52885771 -32.90722656 1278.63037109 C-30.95155115 1277.53362937 -28.99249051 1276.44290457 -27.03027344 1275.35791016 C-13.19998503 1267.70034931 0.1119279 1259.46852141 13.25 1250.6875 C13.93542877 1250.22950012 14.62085754 1249.77150024 15.32705688 1249.29962158 C27.5756494 1241.09411252 39.68827105 1232.68073323 51.375 1223.6875 C52.07850586 1223.14754395 52.78201172 1222.60758789 53.50683594 1222.05126953 C61.12168278 1216.17788141 68.59216286 1210.13169713 76 1204 C76.87398437 1203.27683594 76.87398437 1203.27683594 77.765625 1202.5390625 C85.14869353 1196.40908358 92.2960941 1190.06923879 99.32250977 1183.53393555 C100.54283547 1182.41804173 101.77704777 1181.31727649 103.01928711 1180.22583008 C110.66213149 1173.48223798 117.84744737 1166.30436724 125.04174805 1159.08862305 C127.19011866 1156.93487478 129.34380694 1154.78654774 131.49804688 1152.63867188 C132.88834168 1151.24771646 134.27832636 1149.85645097 135.66796875 1148.46484375 C136.30043015 1147.83440659 136.93289154 1147.20396942 137.58451843 1146.5544281 C141.37079044 1142.74852169 144.97202482 1138.82775572 148.47703552 1134.76107788 C150.55782191 1132.3549634 152.71658766 1130.02396319 154.875 1127.6875 C158.91402153 1123.25368689 162.77506878 1118.71945416 166.5390625 1114.05078125 C168.33280236 1111.82711326 170.13872383 1109.61801522 171.9609375 1107.41796875 C225.69314274 1042.32981789 266.83276001 966.14792191 293 886 C293.53802246 884.37674805 293.53802246 884.37674805 294.08691406 882.72070312 C312.72402391 826.20182022 323.15620407 767.32615704 327 708 C327.10586426 706.42508789 327.10586426 706.42508789 327.21386719 704.81835938 C332.15571938 628.10198732 322.73553682 549.67936673 230 309 C228.68863248 306.81781025 227.37744031 304.63551511 226.06640625 302.453125 C218.38360053 289.74288675 210.36453592 277.37045024 201.67480469 265.32617188 C200.00183756 263.00255222 198.34697737 260.66692166 196.6953125 258.328125 C189.94349397 248.81227446 182.8334711 239.67752242 175.39257812 230.69238281 C173.54286922 228.44445467 171.73962447 226.16116617 169.9375 223.875 C162.28689954 214.29567673 154.19733058 205.08659271 145.86328125 196.09887695 C144.06693228 194.15956635 142.28425297 192.21039159 140.50878906 190.25170898 C134.15892048 183.24974748 127.62521988 176.46842359 120.9284668 169.7980957 C119.29943428 168.17447771 117.67589272 166.54550397 116.05273438 164.91601562 C111.07576985 159.93588536 106.06677876 155.04126121 100.71020508 150.46508789 C98.13334915 148.25756292 95.67035165 145.93769818 93.1875 143.625 C88.61702095 139.40725913 83.9306113 135.3904736 79.08203125 131.4921875 C76.76835882 129.62130916 74.47813421 127.73268121 72.19921875 125.8203125 C61.77761994 117.09677407 51.03115131 108.93538778 40 101 C39.29939453 100.49259277 38.59878906 99.98518555 37.87695312 99.46240234 C21.45467249 87.58403682 4.49902876 76.3251609 -13.03125 66.14404297 C-14.42421912 65.33458695 -15.81459784 64.5206655 -17.203125 63.70361328 C-86.9960191 22.66851143 -162.96451868 -5.13251311 -285.625 -26.8125 C-286.44609253 -26.91195923 -287.26718506 -27.01141846 -288.11315918 -27.1138916 C-314.55356584 -30.26970354 -340.89098813 -31.3811484 -367.4934845 -31.31805801 C-369.91309679 -31.31241109 -372.33270205 -31.30959476 -374.75231934 -31.30697632 C-398.28063411 -31.2699716 -421.61953841 -30.83837574 -445 -28 Z " fill="#000000" transform="translate(1164,127)"/>
<path d="M0 0 C2.83741086 6.10985895 5.23373876 12.26007649 7.36328125 18.6484375 C7.6718808 19.56175339 7.98048035 20.47506927 8.2984314 21.4160614 C8.96125667 23.37859287 9.6222573 25.3417414 10.28158569 27.30545044 C12.05585697 32.58834697 13.84468997 37.86631008 15.6328125 43.14453125 C15.99769272 44.22244431 16.36257294 45.30035736 16.73851013 46.41093445 C20.32290039 56.98439202 23.99483543 67.52645637 27.6875 78.0625 C31.42551635 88.72873101 35.14923858 99.39877678 38.79296875 110.09765625 C39.0973436 110.99096146 39.40171844 111.88426666 39.71531677 112.80464172 C41.16593342 117.06492474 42.61239993 121.32656543 44.0534668 125.59008789 C44.5642284 127.09393381 45.07504849 128.59775986 45.5859375 130.1015625 C45.81746017 130.79093399 46.04898285 131.48030548 46.28752136 132.19056702 C47.19963817 135.34581982 47.19963817 135.34581982 49 138 C49.1921962 137.43149826 49.3843924 136.86299652 49.58241272 136.27726746 C58.4660936 110.00589019 67.38576458 83.74971781 76.56323242 57.5793457 C79.75022107 48.48513074 82.90506431 39.38115492 86.0078125 30.2578125 C86.49797852 28.81704346 86.49797852 28.81704346 86.99804688 27.34716797 C88.5694816 22.72488475 90.13654752 18.10116871 91.69824219 13.47558594 C92.25450289 11.83526801 92.81081505 10.19496753 93.3671875 8.5546875 C93.62057892 7.79970978 93.87397034 7.04473206 94.13504028 6.26687622 C95.88685498 1.11314502 95.88685498 1.11314502 97 0 C109.47487375 0.0788691 122.02481025 2.08147315 134.3840332 3.58398438 C137.84974989 4.00451996 141.31639658 4.4166809 144.78320312 4.828125 C146.9870386 5.09325648 149.19081691 5.35886358 151.39453125 5.625 C152.94899712 5.8094165 152.94899712 5.8094165 154.53486633 5.99755859 C155.48733749 6.11437988 156.43980865 6.23120117 157.42114258 6.3515625 C158.25970291 6.45291504 159.09826324 6.55426758 159.9622345 6.65869141 C162 7 162 7 164 8 C164.39070797 10.5537796 164.39070797 10.5537796 164.58348083 13.98449707 C164.65706251 15.26224503 164.73064419 16.53999298 164.80645561 17.85646057 C164.87302438 19.23754291 164.9375224 20.61872654 165 22 C165.03027889 22.6618247 165.06055777 23.32364941 165.0917542 24.0055294 C165.31595777 29.08525107 165.49180013 34.16635284 165.66430664 39.24804688 C165.72335474 40.93181592 165.78262121 42.61557731 165.84208679 44.29933167 C166.00142994 48.83020926 166.15757338 53.36119168 166.31296849 57.89220619 C166.47689023 62.65959654 166.64336711 67.42689782 166.80943298 72.19421387 C167.08776339 80.19630772 167.36396021 88.19847312 167.63891602 96.20068359 C167.9557237 105.42004792 168.27611869 114.63928238 168.5983935 123.85845709 C168.9097674 132.76868519 169.21838811 141.67900673 169.52584648 150.58937073 C169.65610118 154.36254608 169.78733407 158.13568548 169.91938972 161.90879822 C170.07509671 166.36084142 170.22838091 170.81296192 170.37988472 175.26515007 C170.43548678 176.88799319 170.49189017 178.5108091 170.54920578 180.13359261 C170.88866731 189.76178558 171.07377602 199.36436314 171 209 C165.36201653 208.18465731 159.72442306 207.36668318 154.0871582 206.54638672 C152.1738489 206.26833908 150.26043931 205.99098057 148.34692383 205.71435547 C127.9452496 202.7640742 127.9452496 202.7640742 119 201 C118.12301892 194.78688572 117.74549792 188.65249101 117.53515625 182.3840332 C117.49760223 181.35036118 117.46004822 180.31668915 117.4213562 179.25169373 C117.34067554 177.01796839 117.2616292 174.78418354 117.18405151 172.55034828 C117.06090617 169.00489357 116.93345146 165.45961613 116.80493164 161.91435242 C116.53266414 154.38054045 116.26621328 146.84652791 116 139.3125 C115.69114914 130.59407732 115.3798805 121.87574774 115.06466675 113.15755272 C114.94000503 109.68309916 114.8186474 106.20854096 114.69750977 102.73396301 C114.33233794 92.46929961 113.96065421 82.22975229 113 72 C112.78718887 72.62003906 112.57437775 73.24007812 112.3551178 73.87890625 C102.27299842 103.24708452 92.14979491 132.59747069 81.73461914 161.84960938 C81.0886611 163.66404708 80.44274555 165.4784999 79.796875 167.29296875 C79.33504066 168.59015335 79.33504066 168.59015335 78.86387634 169.9135437 C75.18794079 180.25670397 71.59684203 190.62910548 68 201 C55.46 201 42.92 201 30 201 C25.50036269 190.87581606 25.50036269 190.87581606 23.94799805 186.33642578 C23.59576172 185.31315186 23.24352539 184.28987793 22.88061523 183.2355957 C22.32676147 181.60690552 22.32676147 181.60690552 21.76171875 179.9453125 C21.36388184 178.78652588 20.96604492 177.62773926 20.55615234 176.43383789 C19.48471312 173.31138756 18.41670385 170.18778977 17.35006332 167.06369781 C16.23567204 163.8029258 15.11650329 160.54379584 13.99731445 157.28466797 C13.77351954 156.63293673 13.54972464 155.98120548 13.31914806 155.30972481 C12.86640248 153.99128593 12.41363828 152.67285344 11.96085548 151.35442734 C11.28055572 149.37297782 10.60075932 147.3913562 9.92106628 145.40969849 C5.88129976 133.63481605 1.79490984 121.87644504 -2.3125 110.125 C-2.60629547 109.28390686 -2.90009094 108.44281372 -3.20278931 107.57623291 C-7.46232393 95.38198747 -11.73293606 83.19161127 -16 71 C-17.65 113.57 -19.3 156.14 -21 200 C-24.90944964 201.30314988 -27.95100897 202.28118171 -31.88793945 202.88549805 C-32.80521317 203.02871994 -33.72248688 203.17194183 -34.66755676 203.31950378 C-35.63964584 203.46543472 -36.61173492 203.61136566 -37.61328125 203.76171875 C-38.62343796 203.91663284 -39.63359467 204.07154694 -40.67436218 204.2311554 C-42.79951788 204.55557064 -44.92508336 204.87731156 -47.05102539 205.1965332 C-50.31982437 205.68860257 -53.58667261 206.19239211 -56.85351562 206.69726562 C-58.91916409 207.01111998 -60.9849159 207.32429517 -63.05078125 207.63671875 C-64.03299149 207.78872238 -65.01520172 207.94072601 -66.0271759 208.09733582 C-66.92868881 208.23110123 -67.83020172 208.36486664 -68.7590332 208.50268555 C-69.55590042 208.623228 -70.35276764 208.74377045 -71.17378235 208.8679657 C-71.77643417 208.91153702 -72.379086 208.95510834 -73 209 C-74 208 -74 208 -74.06895828 206.22633266 C-74.04243557 205.44623868 -74.01591286 204.6661447 -73.98858643 203.8624115 C-73.96064625 202.96711479 -73.93270607 202.07181808 -73.90391922 201.14939117 C-73.86762783 200.15641777 -73.83133644 199.16344437 -73.79394531 198.14038086 C-73.75983929 197.09683693 -73.72573326 196.053293 -73.69059372 194.97812653 C-73.57474418 191.47351313 -73.45144764 187.96920156 -73.328125 184.46484375 C-73.24470233 181.99131136 -73.1617026 179.51776467 -73.07910156 177.04420471 C-72.87849535 171.07455347 -72.67299205 165.10508919 -72.46512461 159.13568789 C-72.29800721 154.33255397 -72.13324224 149.5293445 -71.97009277 144.72607422 C-71.94704913 144.04776861 -71.92400548 143.369463 -71.90026355 142.67060268 C-71.87720181 141.99175144 -71.85414007 141.3129002 -71.83037949 140.61347771 C-70.3284931 96.4050255 -68.72421301 52.20035187 -67 8 C-64.46339578 6.73169789 -62.27467492 6.58002043 -59.45214844 6.24389648 C-58.29044128 6.10382675 -57.12873413 5.96375702 -55.93182373 5.81944275 C-54.03971161 5.59750999 -54.03971161 5.59750999 -52.109375 5.37109375 C-50.17061493 5.1401577 -50.17061493 5.1401577 -48.19268799 4.90455627 C-45.45247079 4.57854984 -42.71195174 4.25524517 -39.97119141 3.93383789 C-36.46922157 3.52296226 -32.96805911 3.10562338 -29.46709824 2.68624783 C-26.11909754 2.28607006 -22.77046466 1.89131328 -19.421875 1.49609375 C-18.16856384 1.34611435 -16.91525269 1.19613495 -15.6239624 1.04161072 C-14.44964661 0.90469315 -13.27533081 0.76777557 -12.06542969 0.62670898 C-11.0366571 0.50537094 -10.00788452 0.3840329 -8.94793701 0.25901794 C-5.94932089 -0.00445288 -3.00853089 -0.04496227 0 0 Z " fill="#000000" transform="translate(745,118)"/>
<path d="M0 0 C3.01474312 1.37018615 5.29481255 2.95758536 7.7578125 5.1640625 C8.45422852 5.78700195 9.15064453 6.40994141 9.86816406 7.05175781 C13.23414779 10.12786296 16.56291043 13.24101911 19.875 16.375 C25.26754906 21.46170487 30.70202912 26.47673671 36.27734375 31.36328125 C38 33 38 33 39 35 C31.58799723 45.16979893 24.0872779 55.2512978 16.32373047 65.15576172 C11.97441658 70.715971 7.72070986 76.34168748 3.5 82 C-1.95694992 89.31394184 -7.50565899 96.54758922 -13.1237793 103.73828125 C-21.24311978 113.43321641 -21.24311978 113.43321641 -28 124 C-27.02168213 123.53327881 -26.04336426 123.06655762 -25.03540039 122.58569336 C-6.56398393 113.77936324 11.92783681 105.03640471 30.59619141 96.65429688 C38.09010907 93.28107446 45.52357516 89.80534423 52.91796875 86.21875 C54.58441559 85.41467663 56.25091904 84.6107206 57.91748047 83.80688477 C61.12965975 82.25678221 64.33093196 80.68655154 67.52783203 79.10522461 C68.98302364 78.40140554 70.4385717 77.69832283 71.89453125 76.99609375 C72.55647995 76.66158203 73.21842865 76.32707031 73.9004364 75.98242188 C78.41390709 73.83526441 78.41390709 73.83526441 81.30004883 74.64648438 C83.94603636 76.75324222 85.8663095 79.37201145 87.875 82.0625 C88.84169739 83.32709256 89.81055311 84.59003734 90.78125 85.8515625 C91.296875 86.52219727 91.8125 87.19283203 92.34375 87.88378906 C95.84192919 92.35345552 99.50017001 96.69470545 103.14013672 101.04907227 C104.77733452 103.01931938 106.39051754 105.00709093 108 107 C108.52625977 107.62148926 109.05251953 108.24297852 109.59472656 108.88330078 C111.0390625 110.69140625 111.0390625 110.69140625 113 114 C112.38744347 118.95613917 107.8730651 123.24677372 104.8125 127.0625 C103.53618013 128.67713751 102.26149705 130.29306992 100.98828125 131.91015625 C100.32908691 132.74691895 99.66989258 133.58368164 98.99072266 134.44580078 C95.76519434 138.58431896 92.63350526 142.79163433 89.5 147 C82.96242468 155.76147137 76.28121402 164.40244051 69.54882812 173.01464844 C64.53389282 179.44299867 59.58546923 185.92299461 54.63671875 192.40234375 C54.0547876 193.16409912 53.47285645 193.92585449 52.87329102 194.71069336 C51.7364558 196.19932677 50.60019381 197.68839818 49.46459961 199.17797852 C46.6843231 202.81993047 43.88121565 206.43675746 41 210 C53.91336007 204.52440503 66.69115961 198.79720247 79.375 192.8125 C90.75725141 187.44366299 102.16819835 182.14554029 113.625 176.9375 C114.29988464 176.63002838 114.97476929 176.32255676 115.67010498 176.00576782 C124.72922133 171.88045352 133.83445158 167.88360169 143 164 C147.9383837 171.12246943 152.27600137 178.53425617 156.5625 186.0625 C161.61373392 194.9629186 161.61373392 194.9629186 166.96484375 203.68359375 C169 207 169 207 169 209 C155.14544678 215.39440918 141.29089355 221.78881836 127.43634033 228.18322754 C126.61704041 228.56136597 125.79774048 228.93950439 124.95361328 229.32910156 C117.70002747 232.6769104 110.44644165 236.02471924 103.19285583 239.37252808 C102.38671341 239.74459381 101.58057098 240.11665955 100.75 240.5 C86.12500004 247.24999998 86.12500004 247.24999998 83.68772888 248.37489319 C82.06196475 249.12524665 80.43620181 249.87560269 78.81044006 250.6259613 C74.759641 252.49557452 70.70882155 254.36514354 66.65795898 256.23461914 C59.20598594 259.6737639 51.75419484 263.11330091 44.30311584 266.55438232 C25.88061423 275.06228755 7.45568944 283.56425106 -11 292 C-14.01027948 289.35409219 -15.76400491 286.23258324 -17.765625 282.78515625 C-18.12211121 282.17417587 -18.47859741 281.5631955 -18.84588623 280.93370056 C-19.98496721 278.97914185 -21.11758467 277.02092661 -22.25 275.0625 C-22.99566589 273.78035003 -23.74175585 272.49844659 -24.48828125 271.21679688 C-25.95363596 268.69950095 -27.41647875 266.18077494 -28.87695312 263.66064453 C-31.90656616 258.43378122 -34.95352865 253.2170518 -38 248 C-34.8693673 243.08484492 -31.60494376 238.42158539 -27.875 233.9375 C-24.2619275 229.59099182 -20.81327418 225.15792519 -17.4375 220.625 C-12.74515952 214.32558975 -8.0146465 208.05744184 -3.25 201.8125 C-2.57582031 200.92844482 -1.90164063 200.04438965 -1.20703125 199.13354492 C1.53881011 195.53385351 4.28589289 191.93511168 7.03369141 188.33691406 C16.15257372 176.39473219 25.21721143 164.41431158 34.21728516 152.38232422 C37.12068409 148.50237807 40.02931911 144.62636227 42.9375 140.75 C44.62505558 138.50004168 46.31252837 136.25002129 48 134 C30.58613462 141.66264799 13.19670332 149.35948902 -4 157.5 C-16.93713474 163.62237095 -29.97278073 169.49749329 -43.07250977 175.26342773 C-49.89435341 178.2688573 -56.69498752 181.29977894 -63.43359375 184.48828125 C-64.54476563 185.01196289 -65.6559375 185.53564453 -66.80078125 186.07519531 C-68.82593119 187.0354392 -70.84591612 188.00668876 -72.859375 188.99121094 C-73.73980469 189.40790039 -74.62023438 189.82458984 -75.52734375 190.25390625 C-76.27749756 190.61814697 -77.02765137 190.9823877 -77.80053711 191.35766602 C-80.58588724 192.17110327 -82.24943019 191.86568015 -85 191 C-87.61328125 188.7421875 -87.61328125 188.7421875 -90.3125 185.875 C-94.87802362 181.12184458 -94.87802362 181.12184458 -99.75 176.6875 C-106.37934571 171.03305807 -112.65036513 164.96394416 -119 159 C-116.03634836 153.48371409 -112.58654148 148.70183479 -108.6875 143.8125 C-103.58240351 137.33140474 -98.55877364 130.79999583 -93.625 124.1875 C-88.45383992 117.26278843 -83.24641489 110.3678838 -78 103.5 C-72.80014262 96.69114201 -67.63185722 89.86025539 -62.5 83 C-53.39233796 70.82812258 -44.16450885 58.74833854 -34.92578125 46.67578125 C-27.23563289 36.6175848 -19.64051713 26.49852105 -12.15234375 16.2890625 C-8.14490009 10.82668706 -4.08034449 5.40807564 0 0 Z " fill="#000000" transform="translate(1230,272)"/>
<path d="M0 0 C10.11782378 7.82039312 19.59127055 18.00675746 22 31 C22.3019149 38.70770989 22.24465491 46.37648866 21 54 C21.53367187 53.61328125 22.06734375 53.2265625 22.6171875 52.828125 C34.40458908 44.58917995 47.76185682 40.3590932 62.18359375 42.46484375 C77.72175627 45.3410206 89.40164679 52.41649145 99.16796875 64.734375 C107.39199125 76.86875362 110.34592932 90.6083475 108.375 105.125 C105.14650072 121.20335403 95.44233479 132.59643975 85.3359375 144.9140625 C82.30308454 148.61585029 79.32462379 152.35668772 76.375 156.125 C75.92785645 156.69589355 75.48071289 157.26678711 75.02001953 157.85498047 C73.67891228 159.56913023 72.33918737 161.28435 71 163 C64.67494246 171.10311178 58.27793965 179.13669305 51.77490234 187.09790039 C48.36435219 191.2856087 45.02453447 195.51773292 41.75 199.8125 C38.08727105 204.61564972 34.32718034 209.3239515 30.484375 213.984375 C27.45280221 217.66420864 24.4437344 221.36195736 21.4375 225.0625 C20.87313232 225.75706299 20.30876465 226.45162598 19.72729492 227.16723633 C16.18949268 231.52491842 12.67395704 235.89948859 9.17578125 240.2890625 C5.63413272 244.70181668 2.05639301 249.08533908 -1.52148438 253.46875 C-4.0753267 256.60343011 -6.61356234 259.73434846 -9 263 C-13.43906935 261.5583206 -16.50309917 259.11219305 -19.9375 256.0625 C-24.45284096 252.14606706 -29.02594026 248.34957757 -33.75 244.6875 C-39.07630491 240.54764805 -44.30549154 236.3039713 -49.5 232 C-55.19134549 227.28684456 -60.93324992 222.65546731 -66.76171875 218.11328125 C-71.91330455 214.09081014 -76.9784561 209.9665222 -82.04150391 205.83349609 C-86.30331048 202.36095102 -90.60140148 198.94166643 -94.9375 195.5625 C-100.94214522 190.8799785 -106.81660123 186.05012135 -112.68115234 181.19384766 C-117.64774686 177.09003183 -122.67434689 173.07598397 -127.75732422 169.11767578 C-132.2655251 165.59955162 -136.6994594 161.99632552 -141.125 158.375 C-149.48983756 151.54410107 -157.9739565 144.94236588 -167 139 C-164.4734495 134.42939997 -161.31626147 130.56745278 -158 126.5625 C-153.79497741 121.43980512 -149.63241625 116.29318616 -145.5625 111.0625 C-140.34500777 104.3754939 -134.95440111 97.83765618 -129.55078125 91.30078125 C-121.63554346 81.72418719 -113.81027113 72.08060473 -106.16333008 62.28833008 C-102.66196814 57.81496526 -99.09147253 53.40122657 -95.5 49 C-91.48157096 44.0719046 -87.48872595 39.1269539 -83.5625 34.125 C-83.12711914 33.57062256 -82.69173828 33.01624512 -82.24316406 32.44506836 C-79.62553644 29.10195415 -77.03192777 25.74125617 -74.44921875 22.37109375 C-73.83554443 21.57364746 -73.22187012 20.77620117 -72.58959961 19.95458984 C-71.39983108 18.40749601 -70.21415803 16.85724021 -69.03344727 15.30322266 C-52.15964679 -6.61278537 -24.86967731 -15.99617644 0 0 Z M-49 51 C-50.10794922 52.25683594 -50.10794922 52.25683594 -51.23828125 53.5390625 C-56.74857558 59.9194033 -61.80912381 66.64370693 -66.89672852 73.36206055 C-71.41707364 79.30544065 -76.12209406 85.0764787 -80.89599609 90.81713867 C-84.63496846 95.31949764 -88.28606026 99.87735474 -91.875 104.5 C-96.04172392 109.86198973 -100.39305508 115.01024304 -105 120 C-101.0835371 124.07462775 -96.90200401 127.64820828 -92.5 131.1875 C-91.80455078 131.74977295 -91.10910156 132.3120459 -90.39257812 132.89135742 C-84.00903172 138.03325459 -77.530289 143.04637324 -71 148 C-66.78150367 143.94739959 -63.07134864 139.59205873 -59.375 135.0625 C-58.75818359 134.31033203 -58.14136719 133.55816406 -57.50585938 132.78320312 C-53.33354658 127.6789156 -49.24027845 122.51825616 -45.18945312 117.31738281 C-39.27896584 109.75454762 -33.12030613 102.39303034 -27 95 C-13.84178725 80.48857607 -13.84178725 80.48857607 -9.6875 62.265625 C-10.26263242 56.25549126 -12.45815265 52.12979117 -16.9375 48.125 C-27.11280356 41.06458528 -41.08438837 41.10970487 -49 51 Z M15.57421875 99.94140625 C13.70029115 102.30499642 11.85903073 104.6925074 10.0234375 107.0859375 C6.92620801 111.1214752 3.7216288 115.06351273 0.5 119 C-4.96750833 125.70075667 -10.33846022 132.47087623 -15.66162109 139.28662109 C-17.91644873 142.17322823 -20.17609738 145.05604189 -22.4375 147.9375 C-22.88085693 148.50243164 -23.32421387 149.06736328 -23.78100586 149.64941406 C-29.14212664 156.46898303 -34.57069276 163.23468522 -40 170 C-38.50282382 173.71398952 -36.44574726 175.49740759 -33.3125 177.9375 C-27.74853843 182.35919132 -22.38080656 186.96944919 -17.0402832 191.65795898 C-16.42886475 192.19235596 -15.81744629 192.72675293 -15.1875 193.27734375 C-14.64480469 193.75421631 -14.10210937 194.23108887 -13.54296875 194.72241211 C-10.4689644 197.32631261 -10.4689644 197.32631261 -6.625 198.00390625 C-2.94104868 196.59501415 -1.23890593 194.03059359 1 190.9375 C1.96714542 189.65373751 2.93596356 188.37123386 3.90625 187.08984375 C4.41027344 186.41808105 4.91429687 185.74631836 5.43359375 185.05419922 C8.04020845 181.63586131 10.77306691 178.32253992 13.5 175 C18.01027174 169.4767721 22.4521751 163.90695453 26.83813477 158.28466797 C29.77516144 154.53006378 32.76561239 150.82425629 35.7878418 147.13793945 C40.8635535 140.94447445 45.84948499 134.69393536 50.6875 128.3125 C51.19273193 127.65330566 51.69796387 126.99411133 52.21850586 126.31494141 C57.43958683 119.36009125 58.95650227 113.72808323 58 105 C56.29537771 98.70451996 53.53124248 94.61658162 48 91 C34.99168557 84.45610252 24.24117474 89.43219875 15.57421875 99.94140625 Z " fill="#000000" transform="translate(377,303)"/>
</svg>
